<?xml version="1.0" standalone="no"?><!DOCTYPE svg PUBLIC "-//W3C//DTD SVG 1.1//EN" "http://www.w3.org/Graphics/SVG/1.1/DTD/svg11.dtd"><svg class="icon" width="200px" height="200.00px" viewBox="0 0 1024 1024" version="1.1" xmlns="http://www.w3.org/2000/svg"><path d="M687.9 407.8V320H336.5v87.8l-168.1 49.7c-26 7.7-43.9 32.3-43.9 60.3v278.9c0 34.6 27.1 62.7 60.6 62.7h654.4c33.5 0 60.6-28.1 60.6-62.7V517.8c0-28-17.9-52.6-43.9-60.3l-168.3-49.7z" fill="#E4EFF4" /><path d="M185 683.8c-6.7 0-12.1-5.6-12.1-12.5V517.8c0-5.6 3.6-10.5 8.8-12.1l106-31.4c6.4-1.9 13.1 2 15 8.6 1.8 6.7-1.9 13.6-8.3 15.5l-97.2 28.8v144c-0.1 7-5.5 12.6-12.2 12.6z" fill="#FFFFFF" /><path d="M300.1 156.8h424.1v163.1H300.1zM803 577.1l-45.9 141c-8.8 24.6-31.5 40.9-56.8 40.9H324.1c-25.3 0-48-16.3-56.8-40.9l-45.9-141H803z" fill="#74808C" /><path d="M722 577.1l-25.5 78.3c-8.8 24.6-31.5 40.9-56.8 40.9H263.5c-1.1 0-2.3-0.1-3.4-0.1l7.1 21.9C276 742.7 298.7 759 324 759h376.1c25.3 0 48-16.3 56.8-40.9l45.9-141H722z" fill="#565F66" /><path d="M856 457.5l-16.7-5c0 0.8 0.1 1.7 0.1 2.5v316.6c0 13.9-10.9 25.1-24.2 25.1H124.4c0 34.6 27.1 62.7 60.6 62.7h654.4c33.5 0 60.6-28.1 60.6-62.7V517.8c0-28-18-52.6-44-60.3z" fill="#C1DFEA" /><path d="M663.7 156.8v100.4H300.1v62.7h424.2V156.8z" fill="#565F66" /><path d="M330.4 470.5a12.1 12.5 0 1 0 24.2 0 12.1 12.5 0 1 0-24.2 0Z" fill="#FFFFFF" /><path d="M475.9 219.5a12.1 12.5 0 1 0 24.2 0 12.1 12.5 0 1 0-24.2 0Z" fill="#FFFFFF" /><path d="M360.7 269.7c-6.7 0-12.1-5.6-12.1-12.5v-37.6c0-6.9 5.4-12.5 12.1-12.5h72.7c6.7 0 12.1 5.6 12.1 12.5s-5.4 12.5-12.1 12.5h-60.6v25.1c0 6.9-5.4 12.5-12.1 12.5z" fill="#FFFFFF" /><path d="M861 439.4l-154.9-45.8v-54.8h18.2c10 0 18.2-8.4 18.2-18.8V156.8c0-10.4-8.1-18.8-18.2-18.8H300.1c-10 0-18.2 8.4-18.2 18.8v163.1c0 10.4 8.1 18.8 18.2 18.8h18.2v54.8l-154.9 45.8c-33.6 9.9-57.1 42.2-57.1 78.4v278.9c0 45 35.3 81.6 78.8 81.6h654.4c43.4 0 78.8-36.6 78.8-81.6V517.8c-0.1-36.2-23.6-68.5-57.3-78.4zM318.3 175.6h387.8v125.5H318.3V175.6z m563.5 621.1c0 24.2-19 43.9-42.4 43.9H185c-23.4 0-42.4-19.7-42.4-43.9V517.8c0-19.5 12.7-36.9 30.8-42.2l168.1-49.7c7.8-2.3 13.2-9.7 13.2-18.1v-69h315.1v69c0 8.4 5.4 15.8 13.2 18.1l168 49.7c18.1 5.4 30.8 22.7 30.8 42.2v278.9z" fill="#2D3742" /><path d="M803 558.3H675.8c-10 0-18.2 8.4-18.2 18.8s8.1 18.8 18.2 18.8h101.9L740 711.6c-6.1 17.1-22.1 28.7-39.8 28.7H324.1c-17.7 0-33.6-11.5-39.6-28.1L246.7 596h320.1c10 0 18.2-8.4 18.2-18.8s-8.1-18.8-18.2-18.8H221.4c-5.9 0-11.4 2.9-14.8 7.8-3.4 4.9-4.3 11.3-2.5 17l46.1 141.5c11.4 31.8 41.1 53.2 73.9 53.2h376.1c32.8 0 62.5-21.4 74-53.8l45.9-141c1.9-5.7 1-12.1-2.5-17-3.2-4.9-8.7-7.8-14.6-7.8z" fill="#2D3742" /></svg>