<?xml version="1.0" standalone="no"?><!DOCTYPE svg PUBLIC "-//W3C//DTD SVG 1.1//EN" "http://www.w3.org/Graphics/SVG/1.1/DTD/svg11.dtd"><svg class="icon" width="200px" height="200.00px" viewBox="0 0 1024 1024" version="1.1" xmlns="http://www.w3.org/2000/svg"><path d="M83.2 223.4v574.8h862.2L83.2 223.4z m138 257.8l48.8 32.5 69.6 46.4 150.3 100.2H221.2V481.2z" fill="#ED9520" /><path d="M140.7 493.6c-6.3 0-11.5-5.1-11.5-11.5V336.6c0-4.2 2.3-8.1 6.1-10.1 3.7-2 8.3-1.8 11.8 0.6l84.7 56.5c5.3 3.5 6.7 10.7 3.2 15.9-3.5 5.3-10.7 6.7-15.9 3.2l-66.8-44.5v124c-0.1 6.2-5.3 11.4-11.6 11.4z" fill="#FFFFFF" /><path d="M859.2 740.7h-776v57.5h862.2z" fill="#D1791A" /><path d="M140.7 528.1m-11.5 0a11.5 11.5 0 1 0 23 0 11.5 11.5 0 1 0-23 0Z" fill="#FFFFFF" /><path d="M955 783.9L92.8 209.1c-5.3-3.5-12.1-3.9-17.7-0.9S66 217 66 223.4v574.8c0 9.5 7.7 17.2 17.2 17.2h862.2c7.6 0 14.3-5 16.5-12.2 2.2-7.3-0.6-15.1-6.9-19.3zM698.2 781v-40.2c0-9.5-7.7-17.2-17.2-17.2s-17.2 7.7-17.2 17.2V781h-80.5v-40.2c0-9.5-7.7-17.2-17.2-17.2s-17.2 7.7-17.2 17.2V781h-80.5v-40.2c0-9.5-7.7-17.2-17.2-17.2s-17.2 7.7-17.2 17.2V781h-80.5v-40.2c0-9.5-7.7-17.2-17.2-17.2s-17.2 7.7-17.2 17.2V781h-80.5v-40.2c0-9.5-7.7-17.2-17.2-17.2s-17.2 7.7-17.2 17.2V781H100.5V255.6l788 525.3H698.2z" fill="#2D3742" /><path d="M221.2 677.5h268.6c7.6 0 14.3-5 16.5-12.2 2.2-7.3-0.6-15.1-6.9-19.3L349.1 545.7c-7.9-5.3-18.6-3.1-23.9 4.8-5.3 7.9-3.1 18.6 4.8 23.9L432.8 643H238.4V513.4l22 14.6c7.9 5.3 18.6 3.1 23.9-4.8 5.3-7.9 3.1-18.6-4.8-23.9l-48.8-32.5c-5.3-3.5-12.1-3.9-17.7-0.9s-9.1 8.8-9.1 15.2v179.1c0 9.6 7.7 17.3 17.3 17.3z" fill="#2D3742" /></svg>