<?xml version="1.0" standalone="no"?><!DOCTYPE svg PUBLIC "-//W3C//DTD SVG 1.1//EN" "http://www.w3.org/Graphics/SVG/1.1/DTD/svg11.dtd"><svg class="icon" width="200px" height="200.00px" viewBox="0 0 1024 1024" version="1.1" xmlns="http://www.w3.org/2000/svg"><path d="M618.9 541.7v-20.9c0-25.3 9.8-50 28.1-67.4 41.3-39.3 65.5-96.4 60.1-159.1-8.2-95.1-85.8-171.3-181-177.9-114.3-7.9-209.6 82.5-209.6 195.2 0 55.1 22.8 104.8 59.4 140.4 18.7 18.1 29.5 42.7 29.5 68.7v20.9c0 36.9-21.4 70.5-54.9 86L219 688.8c-41.8 19.5-68.6 61.4-68.6 107.5v114.1h723.4v-114c0-46.1-26.8-88.1-68.6-107.5l-131.5-61.2c-33.4-15.6-54.8-49.1-54.8-86z" fill="#EF5343" /><path d="M381.7 323.5c-6.5 0-11.9-5.3-11.9-11.9 0-57.3 34.1-108.8 86.9-131.1 6-2.5 13 0.3 15.5 6.3 2.6 6-0.3 13-6.3 15.5-44 18.6-72.4 61.5-72.4 109.3 0.1 6.6-5.2 11.9-11.8 11.9z" fill="#FFFFFF" /><path d="M805.3 688.9l-131.5-61.2c-33.5-15.6-54.9-49.1-54.9-86v-20.9c0-25.3 9.8-50 28.1-67.4 41.3-39.3 65.5-96.4 60.1-159.1-5.3-61.7-39.9-115.4-89.5-147.3 16.7 25.9 23.9 56.3 30.2 88 18.5 94.4-18.8 179.1-60.1 218.4-18.3 17.5-28.1 42.1-28.1 67.4v20.9c0 36.9 21.4 70.5 54.9 86L746 688.9c41.8 19.5 68.6 61.4 68.6 107.5v54.8H150.5v59.3h723.4V796.4c0-46.1-26.8-88.1-68.6-107.5z" fill="#D84141" /><path d="M512.2 181.2m-11.9 0a11.9 11.9 0 1 0 23.8 0 11.9 11.9 0 1 0-23.8 0Z" fill="#FFFFFF" /><path d="M812.8 672.7l-131.5-61.2c-27.1-12.6-44.6-40-44.6-69.9v-20.9c0-21 8.2-40.9 22.6-54.5 47.3-45 71.1-108.2 65.5-173.5-8.9-103.4-93.8-186.9-197.5-194-60-4.1-117 16.1-160.7 56.9-43.1 40.2-67.8 97.1-67.8 156.1 0 58.2 23 112.6 64.8 153.1 15.6 15.1 24.1 35 24.1 56v20.9c0 29.9-17.5 57.3-44.6 69.9l-131.5 61.2c-47.9 22.3-78.9 70.8-78.9 123.7v114.1c0 9.8 8 17.8 17.8 17.8h723.4c9.8 0 17.8-8 17.8-17.8V796.4c0-52.8-31-101.4-78.9-123.7z m-644.5 220v-71.2h426.9c9.8 0 17.8-8 17.8-17.8s-8-17.8-17.8-17.8H168.9c3.7-34.9 25.4-66 57.7-81l131.5-61.2c39.6-18.4 65.1-58.5 65.1-102.2v-20.9c0-30.3-12.7-60-34.9-81.5-34.8-33.8-54-79.1-54-127.6 0-49.1 20.6-96.5 56.5-130.1 36.4-34 84-50.8 134-47.4 86.4 6 157.1 75.4 164.5 161.6 4.7 54.4-15.2 107.2-54.6 144.6-21.4 20.4-33.7 49.6-33.7 80.3v20.9c0 43.6 25.6 83.7 65.1 102.2L797.8 705c32.2 15 54 46.1 57.7 81H711c-9.8 0-17.8 8-17.8 17.8s8 17.8 17.8 17.8h145.1v71.2H168.3z" fill="#2D3742" /></svg>