<?xml version="1.0" standalone="no"?><!DOCTYPE svg PUBLIC "-//W3C//DTD SVG 1.1//EN" "http://www.w3.org/Graphics/SVG/1.1/DTD/svg11.dtd"><svg t="1533182351658" class="icon" style="" viewBox="0 0 1024 1024" version="1.1" xmlns="http://www.w3.org/2000/svg" p-id="2421" xmlns:xlink="http://www.w3.org/1999/xlink" width="200" height="200"><defs><style type="text/css"></style></defs><path d="M115.6 479.7H82.8v98.7h32.8v-98.7zM89 327.1l44.9 119.7H59.1L89 327.1m-6.2-110.4L17 479.7h164.3l-98.5-263zM604 207l75.1 125.3 26.7 44.5 28.8-43.2 20.6-31 38.2 210.2-102.1-61.3-19-11.4-17.6 13.3-78.9 59.2v-91L526 451.5l-114.6 68.7V470.4l-40.9 10.2-62.1 15.6 0.9-1.9 38.6-77.3-80.3 32.1-15.6 6.2 37.9-37.9 74.2-74.2 16 48.1 18.4 55.1 37.8-44.2L604 207M214.3 446.8l-98.6 98.6 98.6-39.5 32.9-13.2 32.9-13.1-31.9 65.8 130.5-32.9v65.7L543 479.7v98.7l131.5-98.7 164.3 98.7-65.7-361.6-65.8 98.7L608.7 151 411.5 381.1l-32.9-98.7-111.8 111.9" fill="#157EFB" p-id="2422"></path><path d="M1003.2 580.7c0-33.1-74.7-68.1-180.7-68.1l-0.3 32.9c68.1 0.6 138.4 19.8 147.9 37.3-4.2 28.8-93.4 45.2-247 45.2-110.7 4.1-114.6 30.6-115.9 39.3-3.1 21.5 18.8 37.9 77.7 58.2 8.3 3.2 23.7 13 23.9 21.9 0.1 3.2-2.2 20.3-57.8 46.5-171.8 81.3-406.6 64.2-634-61v36.5c159.4 79.3 295.3 104.8 402.7 104.8 117.4 0 201.2-29.7 245.3-50.6 52.5-24.7 77.6-50 76.6-77.3-1.1-33.2-40.3-49.6-45.4-51.7-30.1-10.3-44.4-17.8-51.3-22.3 14.6-5.3 47.3-10.3 78.8-11.4 246.3 0 279.5-40.6 279.5-80.2z" fill="#157EFB" p-id="2423"></path></svg>